<?xml version="1.0" encoding="UTF-8"?>
<svg xmlns="http://www.w3.org/2000/svg" width="240" height="240" viewBox="0 0 240 240" role="img" aria-labelledby="title desc">
  <title id="title">SMK-S3 — diagnóstico do sistema 240 por 240</title>
  <desc id="desc">Tela de saúde do áudio, USB, filas e memória, com prioridade visual para underruns e conexão.</desc>
  <defs><style>.ui{font-family:"Cascadia Mono","JetBrains Mono",monospace}.micro{font-size:6px;letter-spacing:.65px}.small{font-size:8px;letter-spacing:.3px}.body{font-size:10px}.value{font-size:18px;font-weight:700}</style><clipPath id="screen"><rect width="240" height="240" rx="3"/></clipPath></defs>
  <g clip-path="url(#screen)" class="ui">
    <rect width="240" height="240" fill="#05080a"/><rect width="240" height="31" fill="#11181d"/><text x="7" y="11" class="micro" fill="#7e9099">SISTEMA</text><text x="7" y="24" class="body" fill="#f4f7f8">DIAGNÓSTICO</text><rect x="188" y="7" width="45" height="12" rx="2" fill="#183b28"/><text x="210.5" y="15" text-anchor="middle" class="micro" fill="#28d17c">ESTÁVEL</text>
    <g transform="translate(7 40)"><rect width="110" height="62" rx="4" fill="#0e171c"/><text x="8" y="14" class="micro" fill="#7e9099">ÁUDIO · 48 kHz</text><text x="8" y="39" class="value" fill="#28d17c">0</text><text x="32" y="38" class="small" fill="#a9b6bc">UNDERRUNS</text><text x="8" y="54" class="micro" fill="#7e9099">MAX RENDER 2.8 ms</text></g>
    <g transform="translate(123 40)"><rect width="110" height="62" rx="4" fill="#0e171c"/><text x="8" y="14" class="micro" fill="#7e9099">USB MIDI HOST</text><circle cx="15" cy="34" r="6" fill="#28d17c"/><text x="29" y="38" class="body" fill="#f4f7f8">CONECTADO</text><text x="8" y="54" class="micro" fill="#00e5ff">SMK25 V2</text></g>
    <g transform="translate(7 108)"><rect width="226" height="42" rx="4" fill="#0e171c"/><text x="8" y="14" class="micro" fill="#7e9099">FILAS DE EVENTOS</text><text x="8" y="31" class="small" fill="#f4f7f8">USO 18/256</text><rect x="79" y="24" width="97" height="5" rx="2.5" fill="#26343c"/><rect x="79" y="24" width="8" height="5" rx="2.5" fill="#00e5ff"/><text x="218" y="31" text-anchor="end" class="small" fill="#28d17c">DROP 0</text></g>
    <g transform="translate(7 156)"><rect width="110" height="47" rx="4" fill="#0e171c"/><text x="8" y="14" class="micro" fill="#7e9099">RAM INTERNA</text><text x="8" y="31" class="body" fill="#f4f7f8">188 KB</text><rect x="8" y="36" width="94" height="4" rx="2" fill="#26343c"/><rect x="8" y="36" width="52" height="4" rx="2" fill="#00e5ff"/></g>
    <g transform="translate(123 156)"><rect width="110" height="47" rx="4" fill="#0e171c"/><text x="8" y="14" class="micro" fill="#7e9099">PSRAM LIVRE</text><text x="8" y="31" class="body" fill="#f4f7f8">6.7 MB</text><rect x="8" y="36" width="94" height="4" rx="2" fill="#26343c"/><rect x="8" y="36" width="78" height="4" rx="2" fill="#ffb000"/></g>
    <text x="7" y="217" class="micro" fill="#7e9099">UPTIME 03:42:18 · VOZES 06/08</text><rect y="226" width="240" height="14" fill="#11181d"/><text x="7" y="236" class="micro" fill="#00e5ff">PAD B3 HOME</text><text x="91" y="236" class="micro" fill="#7e9099">B5 ‹ PÁG</text><text x="156" y="236" class="micro" fill="#7e9099">B6 PÁG ›</text><circle cx="230" cy="233" r="3" fill="#28d17c"/>
  </g>
</svg>
